<svg id="svg" version="1.1" xmlns="http://www.w3.org/2000/svg" xmlns:xlink="http://www.w3.org/1999/xlink" width="400" height="383.7974683544304" viewBox="0, 0, 400,383.7974683544304"><g id="svgg"><path id="path0" d="M205.634 122.937 C 205.194 132.943,204.591 141.734,204.241 143.251 C 204.030 144.165,203.853 147.084,203.848 149.738 C 203.843 152.391,203.667 155.500,203.457 156.647 C 203.098 158.613,202.794 163.127,201.924 179.446 C 201.722 183.237,201.446 186.606,201.312 186.932 C 200.904 187.918,200.433 202.462,200.794 202.905 C 201.030 203.193,201.955 203.158,203.923 202.786 C 205.460 202.495,207.684 202.101,208.864 201.910 C 210.045 201.719,211.481 201.384,212.056 201.165 C 212.631 200.947,213.560 200.768,214.120 200.768 C 216.704 200.768,218.426 199.633,218.424 197.932 C 218.423 197.064,218.592 194.626,218.799 192.514 C 219.218 188.253,219.898 178.752,220.351 170.825 C 220.627 165.982,221.008 160.566,221.888 148.944 C 222.773 137.262,222.933 133.420,222.560 132.839 C 222.350 132.513,220.687 130.997,218.863 129.471 C 217.039 127.945,215.098 126.304,214.549 125.824 C 212.834 124.326,209.466 121.422,208.011 120.186 C 205.943 118.430,205.827 118.565,205.634 122.937 M243.174 146.916 C 243.050 147.504,242.859 148.330,242.750 148.752 C 242.640 149.175,242.407 151.679,242.231 154.319 C 241.597 163.810,241.047 169.894,240.680 171.475 C 240.475 172.360,240.307 174.554,240.307 176.351 C 240.307 178.147,240.131 180.446,239.915 181.459 C 239.699 182.472,239.359 185.461,239.159 188.100 C 238.960 190.739,238.688 193.438,238.555 194.099 C 238.258 195.581,238.599 196.011,243.184 199.929 C 245.083 201.551,247.760 203.938,249.134 205.233 C 252.350 208.264,253.958 209.597,254.398 209.597 C 254.832 209.597,255.854 199.428,256.809 185.605 C 257.283 178.733,257.956 170.506,258.361 166.603 C 259.039 160.088,258.967 159.588,257.122 157.902 C 256.236 157.092,254.465 155.462,253.187 154.280 C 251.909 153.097,250.363 151.715,249.750 151.209 C 249.138 150.702,247.693 149.424,246.540 148.369 C 243.649 145.724,243.444 145.635,243.174 146.916 M57.198 243.351 C 46.981 245.153,41.324 253.361,41.307 266.411 C 41.289 279.522,47.111 288.006,57.364 289.810 C 71.630 292.321,82.150 282.389,82.150 266.411 C 82.150 250.627,71.540 240.822,57.198 243.351 M102.687 243.328 C 101.843 243.487,100.599 243.909,99.923 244.265 C 99.247 244.622,98.495 244.914,98.251 244.914 C 97.801 244.914,95.158 246.832,93.985 248.010 C 89.902 252.111,89.684 259.655,93.517 264.235 C 95.413 266.501,97.831 268.008,102.879 270.069 C 112.113 273.838,113.997 275.810,111.843 279.455 C 109.799 282.916,101.252 282.412,96.163 278.530 C 95.082 277.706,94.716 277.603,94.158 277.965 C 93.191 278.592,89.635 283.225,89.635 283.858 C 89.635 284.563,92.435 286.756,93.335 286.756 C 93.728 286.756,94.050 286.903,94.050 287.082 C 94.050 287.261,94.784 287.713,95.681 288.087 C 96.579 288.462,97.658 288.913,98.081 289.091 C 108.676 293.553,121.911 286.783,122.397 276.653 C 122.718 269.956,119.730 266.452,110.534 262.743 C 100.861 258.840,99.313 257.468,100.866 254.174 C 102.479 250.752,109.451 250.568,114.694 253.809 L 116.066 254.657 117.760 252.760 C 121.177 248.934,121.211 248.473,118.219 246.514 C 114.032 243.773,107.475 242.428,102.687 243.328 M186.564 243.357 C 164.871 247.281,164.706 285.789,186.365 289.793 C 190.663 290.588,196.287 290.092,198.668 288.709 C 199.308 288.338,200.273 287.922,200.814 287.787 C 204.671 286.819,209.723 278.962,210.951 272.024 C 214.151 253.935,202.673 240.443,186.564 243.357 M131.574 244.177 C 130.946 244.542,130.902 246.041,130.902 267.006 L 130.902 289.443 135.701 289.443 L 140.499 289.443 140.499 283.924 C 140.499 277.830,140.746 276.819,142.878 274.169 C 143.575 273.303,144.456 272.153,144.836 271.614 C 145.688 270.403,146.839 270.353,147.525 271.497 C 149.652 275.047,150.928 277.234,151.838 278.887 C 154.054 282.917,157.143 288.127,157.698 288.772 C 158.417 289.606,167.754 289.805,167.754 288.986 C 167.754 288.734,167.041 287.309,166.169 285.819 C 162.189 279.019,157.804 271.622,155.454 267.744 C 151.729 261.596,151.708 262.250,155.789 256.939 C 166.553 242.928,166.159 244.018,160.538 243.828 C 155.457 243.656,155.390 243.695,151.249 249.390 C 139.519 265.517,140.514 265.208,140.505 252.732 C 140.499 244.248,140.498 244.235,139.635 244.004 C 138.226 243.626,132.301 243.753,131.574 244.177 M235.988 244.027 C 235.358 244.191,235.317 245.602,235.317 266.823 L 235.317 289.443 239.582 289.443 L 243.847 289.443 243.615 277.063 C 243.487 270.254,243.240 263.301,243.065 261.612 C 242.869 259.716,242.889 258.354,243.118 258.052 C 243.625 257.381,243.544 257.216,245.515 262.984 C 247.982 270.201,253.373 284.548,253.836 285.125 C 254.552 286.017,258.250 285.735,258.873 284.741 C 259.511 283.724,263.291 273.777,265.839 266.411 C 268.598 258.434,268.763 258.029,269.333 257.810 C 270.013 257.549,270.011 257.941,269.275 266.152 C 268.902 270.323,268.726 275.776,268.796 280.998 L 268.906 289.251 273.225 289.360 L 277.543 289.469 277.543 267.013 C 277.543 240.685,278.305 243.629,271.544 243.826 C 266.536 243.972,266.934 243.701,265.436 247.978 C 264.880 249.565,263.331 253.887,261.992 257.582 C 260.654 261.276,259.273 265.336,258.924 266.603 C 256.849 274.121,256.569 274.015,253.323 264.488 C 251.922 260.373,250.224 255.537,249.550 253.743 C 248.876 251.948,248.008 249.530,247.620 248.369 C 246.529 245.099,246.039 244.229,245.155 243.992 C 244.210 243.738,236.987 243.766,235.988 244.027 M290.211 244.105 L 289.251 244.372 289.142 265.660 C 289.081 277.369,289.132 287.510,289.255 288.196 L 289.478 289.443 303.619 289.443 L 317.761 289.443 317.992 288.580 C 318.354 287.229,318.274 283.455,317.860 282.367 L 317.485 281.382 308.743 281.376 C 298.051 281.369,298.992 281.935,299.125 275.594 L 299.232 270.441 306.637 270.250 C 315.204 270.027,314.765 270.252,314.773 266.098 C 314.783 261.599,315.156 261.805,306.992 261.798 C 298.363 261.791,298.988 262.189,299.123 256.783 L 299.232 252.399 308.253 252.189 C 313.215 252.074,317.318 251.944,317.370 251.902 C 318.125 251.287,317.344 244.464,316.482 244.136 C 315.367 243.712,291.724 243.685,290.211 244.105 M328.692 244.129 L 327.825 244.507 327.924 266.879 L 328.023 289.251 336.660 289.239 C 345.860 289.226,349.181 288.829,350.938 287.529 C 351.514 287.104,352.171 286.756,352.399 286.756 C 355.819 286.756,361.276 279.582,362.619 273.321 C 365.587 259.485,360.366 248.727,348.752 244.751 C 346.480 243.973,330.205 243.468,328.692 244.129 M66.110 252.534 C 72.554 255.669,74.379 270.854,69.144 277.770 C 63.536 285.179,53.948 282.276,51.636 272.469 C 48.384 258.679,56.309 247.765,66.110 252.534 M194.361 252.050 C 203.607 255.200,204.054 276.223,194.972 280.825 C 187.045 284.842,180.422 278.279,180.429 266.411 C 180.435 255.077,186.102 249.236,194.361 252.050 M346.683 252.909 C 348.832 253.832,351.025 256.016,352.144 258.346 C 354.189 262.605,353.111 274.476,350.400 277.543 C 347.792 280.494,339.724 282.855,338.031 281.163 C 337.225 280.356,337.109 253.078,337.908 252.244 C 338.618 251.502,344.436 251.943,346.683 252.909 " stroke="none" fill="#141f3e" fill-rule="evenodd"></path><path id="path1" d="M0.000 191.939 L 0.000 383.877 200.000 383.877 L 400.000 383.877 400.000 191.939 L 400.000 0.000 200.000 0.000 L 0.000 0.000 0.000 191.939 M177.587 96.042 C 178.693 96.881,179.298 97.413,185.425 102.925 C 187.213 104.534,189.944 106.931,191.495 108.252 C 194.314 110.654,194.314 110.655,194.077 112.240 C 193.946 113.112,193.675 116.329,193.474 119.389 C 193.273 122.449,192.846 128.321,192.523 132.438 C 192.201 136.555,191.767 142.514,191.559 145.681 C 191.350 148.848,191.085 152.044,190.970 152.783 C 190.854 153.522,190.598 156.631,190.399 159.693 C 190.201 162.754,189.774 168.628,189.451 172.745 C 189.129 176.862,188.682 182.994,188.460 186.372 C 187.690 198.044,187.686 198.049,183.062 193.954 C 181.453 192.529,179.141 190.499,177.925 189.443 C 176.709 188.388,174.140 186.132,172.214 184.431 L 168.714 181.337 168.836 177.521 C 168.902 175.422,169.130 172.236,169.342 170.441 C 169.697 167.429,169.894 164.964,170.799 152.207 C 170.978 149.674,171.313 145.614,171.542 143.186 C 172.088 137.406,172.685 130.665,173.157 124.952 C 173.366 122.418,173.639 119.355,173.764 118.144 C 174.048 115.385,173.680 115.184,169.905 116.040 C 168.405 116.380,165.797 116.940,164.107 117.283 C 159.033 118.315,156.505 118.966,156.137 119.333 C 155.727 119.743,155.341 122.830,154.521 132.246 C 154.190 136.046,153.747 140.797,153.537 142.802 C 153.326 144.808,152.980 148.608,152.767 151.248 C 152.554 153.887,152.225 157.957,152.036 160.293 C 151.848 162.628,151.593 165.176,151.470 165.955 C 151.348 166.733,151.153 167.975,151.038 168.714 C 150.903 169.580,150.618 170.058,150.236 170.058 C 149.573 170.058,149.436 169.943,140.140 161.622 L 133.504 155.682 133.710 152.409 C 133.823 150.609,134.195 145.681,134.536 141.459 C 134.876 137.236,135.318 131.449,135.518 128.599 C 135.717 125.749,136.157 120.134,136.496 116.123 C 136.834 112.111,137.199 107.534,137.307 105.950 C 137.541 102.524,137.622 102.415,140.210 102.093 C 141.319 101.955,144.040 101.472,146.257 101.021 C 149.962 100.266,153.370 99.602,158.349 98.664 C 161.657 98.040,166.309 97.103,168.961 96.525 C 170.363 96.219,172.005 95.957,172.608 95.942 C 173.211 95.927,174.050 95.767,174.472 95.585 C 175.719 95.050,176.414 95.152,177.587 96.042 M210.507 120.717 C 216.862 126.122,219.150 128.087,221.593 130.236 L 223.800 132.178 223.802 135.475 C 223.803 137.288,223.634 140.931,223.426 143.570 C 223.218 146.209,222.781 152.255,222.457 157.006 C 222.132 161.756,221.691 167.889,221.477 170.633 C 220.501 183.167,219.645 197.778,219.854 198.340 C 220.045 198.853,221.078 198.745,226.488 197.645 C 228.493 197.237,231.099 196.737,232.278 196.534 C 233.458 196.331,235.099 195.931,235.925 195.645 L 237.428 195.126 237.898 190.749 C 238.156 188.342,238.466 185.163,238.586 183.685 C 238.869 180.206,239.836 169.735,240.305 165.067 C 240.767 160.477,241.476 152.437,241.794 148.177 C 242.229 142.350,241.202 141.919,253.701 153.167 C 260.591 159.368,259.983 158.507,259.734 161.711 C 259.616 163.240,259.251 168.292,258.924 172.937 C 258.597 177.582,258.152 183.196,257.935 185.413 C 257.718 187.630,257.377 191.775,257.178 194.626 C 256.978 197.476,256.634 202.392,256.413 205.551 C 255.956 212.103,256.162 211.551,254.034 211.923 C 252.371 212.214,248.184 213.030,242.994 214.074 C 241.411 214.393,239.338 214.794,238.388 214.965 C 237.438 215.136,235.106 215.569,233.205 215.926 C 231.305 216.283,228.973 216.717,228.023 216.891 C 227.073 217.066,224.914 217.493,223.225 217.840 C 217.369 219.046,216.505 219.018,214.924 217.580 C 214.159 216.884,210.293 213.470,206.332 209.994 L 199.130 203.673 199.350 200.013 C 199.744 193.484,200.375 184.181,200.756 179.271 C 201.589 168.560,202.023 162.295,202.299 157.006 C 202.577 151.683,203.025 145.173,203.830 134.741 C 204.034 132.102,204.370 127.292,204.578 124.053 C 205.109 115.774,204.860 115.913,210.507 120.717 M69.482 243.606 C 70.432 243.988,71.854 244.698,72.641 245.183 C 73.429 245.668,74.170 246.065,74.288 246.065 C 74.638 246.065,77.498 249.205,78.659 250.864 C 85.171 260.166,83.990 276.875,76.247 284.976 C 70.703 290.777,59.819 292.796,53.300 289.232 C 52.739 288.926,52.079 288.676,51.833 288.676 C 49.439 288.676,43.571 281.934,42.039 277.424 C 36.677 261.628,43.477 245.289,56.430 242.849 C 58.826 242.398,67.770 242.916,69.482 243.606 M113.454 243.297 C 113.866 243.521,115.399 244.278,116.859 244.980 C 122.279 247.586,122.534 248.399,119.165 252.332 C 116.390 255.572,116.011 255.723,114.169 254.319 C 113.477 253.791,112.589 253.359,112.195 253.359 C 111.800 253.359,111.308 253.189,111.100 252.981 C 108.642 250.523,101.344 252.672,101.344 255.854 C 101.344 257.859,103.321 259.196,110.173 261.826 C 120.177 265.665,122.970 268.761,122.971 276.008 C 122.972 283.530,119.026 288.154,110.723 290.360 C 106.946 291.364,98.659 290.726,97.257 289.323 C 97.112 289.178,96.733 289.060,96.415 289.060 C 95.435 289.060,91.179 286.819,89.667 285.507 C 87.979 284.042,88.089 283.607,91.025 280.148 C 94.255 276.343,94.424 276.253,96.013 277.485 C 101.867 282.025,108.766 282.628,111.264 278.817 C 113.086 276.038,111.264 274.220,103.455 271.026 C 103.033 270.853,102.056 270.435,101.286 270.097 C 100.515 269.758,99.694 269.482,99.462 269.482 C 99.230 269.482,99.040 269.309,99.040 269.098 C 99.040 268.887,98.778 268.714,98.457 268.714 C 97.583 268.714,95.097 267.037,93.516 265.381 C 87.622 259.208,89.344 248.712,96.879 244.878 C 99.264 243.664,100.785 243.027,101.727 242.847 C 103.427 242.522,112.680 242.878,113.454 243.297 M197.889 243.244 C 198.311 243.456,199.830 244.216,201.263 244.932 C 204.371 246.484,209.597 251.908,209.597 253.581 C 209.597 253.712,209.843 254.363,210.143 255.028 C 212.792 260.900,212.608 272.495,209.770 278.609 C 209.252 279.724,208.829 280.730,208.829 280.846 C 208.829 280.962,208.055 282.063,207.108 283.293 C 197.732 295.477,177.027 292.568,171.663 278.312 C 169.650 272.961,169.021 262.174,170.477 257.965 C 172.581 251.884,175.371 247.665,178.439 245.924 C 179.453 245.349,182.718 243.740,183.685 243.339 C 185.529 242.575,196.416 242.502,197.889 243.244 M140.828 243.504 C 141.101 243.833,141.288 247.011,141.355 252.429 L 141.459 260.845 142.312 259.885 C 142.781 259.357,143.775 258.148,144.522 257.198 C 145.268 256.248,146.050 255.262,146.260 255.007 C 146.470 254.752,146.641 254.433,146.641 254.299 C 146.641 254.165,147.548 252.879,148.656 251.442 C 149.765 250.004,150.931 248.445,151.248 247.978 C 154.635 242.976,154.739 242.925,161.224 243.075 C 166.978 243.208,167.078 243.326,164.412 246.822 C 152.162 262.885,152.746 261.800,154.693 264.875 C 155.842 266.690,159.974 273.602,160.201 274.088 C 160.348 274.405,160.811 275.182,161.228 275.816 C 161.646 276.449,162.111 277.226,162.261 277.541 C 162.411 277.857,163.337 279.411,164.319 280.996 C 167.480 286.098,169.008 289.111,168.629 289.490 C 168.429 289.690,165.813 289.802,162.734 289.742 L 157.198 289.635 154.786 285.605 C 153.459 283.388,151.072 279.295,149.482 276.509 C 147.648 273.295,146.412 271.513,146.101 271.632 C 145.681 271.794,142.871 275.411,141.809 277.159 C 141.616 277.476,141.372 280.413,141.267 283.685 L 141.075 289.635 135.701 289.635 L 130.326 289.635 130.227 267.063 C 130.161 251.940,130.260 244.244,130.529 243.743 C 131.036 242.795,140.067 242.586,140.828 243.504 M246.319 243.560 C 246.763 243.872,247.215 244.606,247.323 245.192 C 247.432 245.778,248.056 247.682,248.712 249.424 C 250.988 255.470,252.254 258.936,252.955 261.036 C 253.343 262.198,253.837 263.580,254.053 264.107 C 254.268 264.635,254.828 266.324,255.297 267.859 C 256.539 271.933,256.764 271.753,258.558 265.259 C 258.937 263.887,259.390 262.600,259.566 262.399 C 259.741 262.199,259.885 261.793,259.885 261.498 C 259.885 261.202,260.127 260.416,260.422 259.751 C 260.718 259.086,261.050 258.196,261.161 257.774 C 261.271 257.351,261.905 255.537,262.569 253.743 C 263.233 251.948,264.125 249.443,264.551 248.177 C 265.698 244.769,266.336 243.489,267.016 243.228 C 268.314 242.730,277.431 242.973,277.883 243.517 C 278.198 243.896,278.290 250.319,278.218 266.838 L 278.119 289.635 273.351 289.744 C 269.794 289.824,268.503 289.727,268.270 289.360 C 267.848 288.695,267.902 272.926,268.343 268.138 C 268.860 262.515,269.065 259.532,268.844 260.845 C 268.737 261.478,268.440 262.255,268.185 262.572 C 267.929 262.889,267.410 264.098,267.033 265.259 C 266.655 266.420,266.200 267.716,266.023 268.138 C 265.846 268.560,264.985 270.893,264.110 273.321 C 262.083 278.943,261.508 280.436,259.931 284.165 L 259.160 285.988 256.547 285.983 C 252.883 285.974,253.184 286.387,249.542 276.392 C 248.657 273.964,247.686 271.410,247.383 270.716 C 247.081 270.023,246.833 269.151,246.833 268.778 C 246.833 268.405,246.696 267.936,246.528 267.735 C 246.360 267.535,245.898 266.334,245.500 265.067 C 245.103 263.800,244.660 262.624,244.516 262.453 C 244.371 262.282,244.272 268.328,244.295 275.889 L 244.338 289.635 239.539 289.635 L 234.741 289.635 234.642 266.838 C 234.570 250.319,234.662 243.896,234.977 243.517 C 235.622 242.739,245.198 242.776,246.319 243.560 M317.631 243.597 C 318.614 244.580,318.499 251.655,317.492 252.194 C 317.044 252.433,313.383 252.591,308.279 252.591 L 299.808 252.591 299.808 256.814 L 299.808 261.036 307.006 261.042 C 315.867 261.050,315.215 260.645,315.080 266.058 L 314.971 270.441 307.486 270.633 L 300.000 270.825 300.000 275.624 L 300.000 280.422 309.107 280.525 C 319.854 280.647,319.086 280.227,318.920 285.893 L 318.810 289.635 303.864 289.736 C 292.163 289.815,288.852 289.731,288.611 289.352 C 287.958 288.323,288.231 244.261,288.895 243.597 C 289.806 242.686,316.720 242.686,317.631 243.597 M347.012 243.726 C 348.377 243.963,349.664 244.328,349.872 244.536 C 350.079 244.744,350.604 244.920,351.036 244.929 C 352.974 244.966,357.276 247.970,359.547 250.870 C 364.723 257.482,365.557 270.641,361.350 279.338 C 360.228 281.658,355.569 286.756,354.571 286.756 C 354.273 286.756,353.814 287.015,353.551 287.332 C 353.288 287.649,352.768 287.908,352.396 287.908 C 352.024 287.908,351.224 288.166,350.620 288.481 C 350.015 288.797,349.080 289.056,348.541 289.057 C 348.003 289.058,347.387 289.235,347.172 289.450 C 346.922 289.700,343.266 289.804,337.018 289.738 L 327.255 289.635 327.155 266.795 C 327.061 245.368,327.097 243.923,327.731 243.452 C 328.560 242.836,343.086 243.042,347.012 243.726 M59.597 252.272 C 58.700 252.472,57.965 252.799,57.965 252.998 C 57.965 253.196,57.698 253.359,57.371 253.359 C 56.703 253.359,54.589 255.352,53.706 256.814 C 50.355 262.365,51.621 274.940,55.938 278.988 C 59.253 282.096,66.116 281.858,67.506 278.586 C 67.580 278.411,67.947 277.975,68.321 277.618 C 71.683 274.402,72.444 263.282,69.699 257.497 C 67.840 253.580,63.589 251.381,59.597 252.272 M188.780 252.294 C 177.011 254.741,178.982 281.382,190.932 281.382 C 201.772 281.382,204.680 257.679,194.434 252.842 C 192.757 252.050,190.843 251.865,188.780 252.294 M338.429 253.198 C 337.670 255.175,338.201 280.206,339.010 280.639 C 339.999 281.169,343.355 280.815,344.888 280.019 C 345.478 279.713,346.193 279.463,346.476 279.463 C 347.687 279.463,351.083 275.470,351.783 273.224 C 352.743 270.144,352.551 260.760,351.487 258.733 C 350.542 256.932,347.024 253.359,346.197 253.359 C 345.833 253.359,345.428 253.186,345.298 252.975 C 344.875 252.292,338.699 252.493,338.429 253.198 " stroke="none" fill="#fbfbfb" fill-rule="evenodd"></path><path id="path2" d="M172.937 96.578 C 171.459 96.872,169.299 97.280,168.138 97.484 C 164.384 98.142,161.451 98.705,160.077 99.031 C 158.198 99.478,154.483 100.220,152.207 100.602 C 151.152 100.780,148.906 101.193,147.217 101.519 C 145.528 101.846,143.177 102.269,141.992 102.459 C 138.350 103.045,138.296 103.123,138.039 108.229 C 137.916 110.670,137.641 113.628,137.429 114.802 C 137.218 115.976,137.038 118.481,137.032 120.369 C 137.025 122.256,136.842 125.010,136.626 126.488 C 136.409 127.965,136.082 131.593,135.898 134.549 C 134.990 149.178,134.745 152.679,134.559 153.692 C 134.346 154.858,136.052 156.925,139.457 159.629 C 140.256 160.263,142.545 162.289,144.543 164.130 C 150.382 169.509,150.479 169.545,150.481 166.315 C 150.482 165.101,150.738 162.553,151.050 160.653 C 151.363 158.752,151.621 156.008,151.625 154.555 C 151.628 153.101,151.800 150.856,152.005 149.564 C 152.384 147.184,153.030 140.160,153.546 132.821 C 153.887 127.970,154.772 118.861,154.920 118.680 C 155.067 118.500,157.443 117.914,160.845 117.220 C 163.743 116.628,164.685 116.442,170.178 115.376 C 171.828 115.056,173.320 114.707,173.493 114.599 C 174.520 113.965,174.725 115.604,174.296 121.002 C 174.056 124.019,173.704 128.973,173.514 132.012 C 173.325 135.050,173.058 137.814,172.922 138.154 C 172.786 138.494,172.522 141.190,172.336 144.146 C 172.150 147.102,171.725 152.457,171.393 156.046 C 171.061 159.635,170.633 165.077,170.443 168.138 C 170.253 171.200,169.919 174.827,169.701 176.200 C 169.005 180.589,168.967 180.507,173.512 184.313 C 174.885 185.462,176.612 186.939,177.351 187.595 C 178.090 188.252,180.163 190.056,181.958 191.605 C 183.752 193.154,185.278 194.554,185.349 194.715 C 185.901 195.985,186.949 194.866,186.961 192.994 C 186.968 191.886,187.149 189.770,187.363 188.292 C 187.577 186.814,187.904 182.927,188.089 179.655 C 188.772 167.607,189.267 160.985,189.639 158.951 C 189.848 157.803,190.019 155.369,190.019 153.541 C 190.019 151.714,190.191 148.852,190.400 147.182 C 190.769 144.245,191.156 139.132,191.952 126.695 C 192.161 123.431,192.501 119.717,192.708 118.442 C 193.242 115.152,193.191 110.983,192.610 110.423 C 192.346 110.168,190.921 108.924,189.443 107.657 C 187.965 106.389,186.313 104.926,185.771 104.404 C 182.244 101.006,176.267 95.942,175.859 96.006 C 175.730 96.026,174.415 96.284,172.937 96.578 " stroke="none" fill="#f24412" fill-rule="evenodd"></path><path id="path3" d="M205.404 117.623 C 205.148 117.931,204.794 120.688,204.578 124.053 C 204.370 127.292,204.034 132.102,203.830 134.741 C 203.025 145.173,202.577 151.683,202.299 157.006 C 202.023 162.295,201.589 168.560,200.756 179.271 C 200.375 184.181,199.744 193.484,199.350 200.013 L 199.130 203.673 206.332 209.994 C 210.293 213.470,214.159 216.884,214.924 217.580 C 216.505 219.018,217.369 219.046,223.225 217.840 C 224.914 217.493,227.073 217.066,228.023 216.891 C 228.973 216.717,231.305 216.283,233.205 215.926 C 235.106 215.569,237.438 215.136,238.388 214.965 C 239.338 214.794,241.411 214.393,242.994 214.074 C 248.184 213.030,252.371 212.214,254.034 211.923 C 256.162 211.551,255.956 212.103,256.413 205.551 C 256.634 202.392,256.978 197.476,257.178 194.626 C 257.377 191.775,257.718 187.630,257.935 185.413 C 258.152 183.196,258.597 177.582,258.924 172.937 C 259.251 168.292,259.616 163.240,259.734 161.711 C 259.983 158.507,260.591 159.368,253.701 153.167 C 241.202 141.919,242.229 142.350,241.794 148.177 C 241.476 152.437,240.767 160.477,240.305 165.067 C 239.836 169.735,238.869 180.206,238.586 183.685 C 238.466 185.163,238.156 188.342,237.898 190.749 L 237.428 195.126 235.925 195.645 C 235.099 195.931,233.458 196.331,232.278 196.534 C 231.099 196.737,228.493 197.237,226.488 197.645 C 221.078 198.745,220.045 198.853,219.854 198.340 C 219.645 197.778,220.501 183.167,221.477 170.633 C 221.691 167.889,222.132 161.756,222.457 157.006 C 222.781 152.255,223.218 146.209,223.426 143.570 C 223.634 140.931,223.803 137.288,223.802 135.475 L 223.800 132.178 221.593 130.236 C 216.093 125.398,206.263 117.083,206.043 117.083 C 205.938 117.083,205.650 117.326,205.404 117.623 M208.011 120.186 C 209.466 121.422,212.834 124.326,214.549 125.824 C 215.098 126.304,217.039 127.945,218.863 129.471 C 220.687 130.997,222.350 132.513,222.560 132.839 C 222.933 133.420,222.773 137.262,221.888 148.944 C 221.008 160.566,220.627 165.982,220.351 170.825 C 219.898 178.752,219.218 188.253,218.799 192.514 C 218.592 194.626,218.423 197.064,218.424 197.932 C 218.426 199.633,216.704 200.768,214.120 200.768 C 213.560 200.768,212.631 200.947,212.056 201.165 C 211.481 201.384,210.045 201.719,208.864 201.910 C 207.684 202.101,205.460 202.495,203.923 202.786 C 201.955 203.158,201.030 203.193,200.794 202.905 C 200.433 202.462,200.904 187.918,201.312 186.932 C 201.446 186.606,201.722 183.237,201.924 179.446 C 202.794 163.127,203.098 158.613,203.457 156.647 C 203.667 155.500,203.843 152.391,203.848 149.738 C 203.853 147.084,204.030 144.165,204.241 143.251 C 204.591 141.734,205.194 132.943,205.634 122.937 C 205.827 118.565,205.943 118.430,208.011 120.186 M246.540 148.369 C 247.693 149.424,249.138 150.702,249.750 151.209 C 250.363 151.715,251.909 153.097,253.187 154.280 C 254.465 155.462,256.236 157.092,257.122 157.902 C 258.967 159.588,259.039 160.088,258.361 166.603 C 257.956 170.506,257.283 178.733,256.809 185.605 C 255.854 199.428,254.832 209.597,254.398 209.597 C 253.958 209.597,252.350 208.264,249.134 205.233 C 247.760 203.938,245.083 201.551,243.184 199.929 C 238.599 196.011,238.258 195.581,238.555 194.099 C 238.688 193.438,238.960 190.739,239.159 188.100 C 239.359 185.461,239.699 182.472,239.915 181.459 C 240.131 180.446,240.307 178.147,240.307 176.351 C 240.307 174.554,240.475 172.360,240.680 171.475 C 241.047 169.894,241.597 163.810,242.231 154.319 C 242.407 151.679,242.640 149.175,242.750 148.752 C 242.859 148.330,243.050 147.504,243.174 146.916 C 243.444 145.635,243.649 145.724,246.540 148.369 M56.430 242.849 C 43.477 245.289,36.677 261.628,42.039 277.424 C 43.571 281.934,49.439 288.676,51.833 288.676 C 52.079 288.676,52.739 288.926,53.300 289.232 C 59.819 292.796,70.703 290.777,76.247 284.976 C 83.990 276.875,85.171 260.166,78.659 250.864 C 77.498 249.205,74.638 246.065,74.288 246.065 C 74.170 246.065,73.429 245.668,72.641 245.183 C 69.276 243.111,61.209 241.949,56.430 242.849 M101.727 242.847 C 100.785 243.027,99.264 243.664,96.879 244.878 C 89.344 248.712,87.622 259.208,93.516 265.381 C 95.097 267.037,97.583 268.714,98.457 268.714 C 98.778 268.714,99.040 268.887,99.040 269.098 C 99.040 269.309,99.230 269.482,99.462 269.482 C 99.694 269.482,100.515 269.758,101.286 270.097 C 102.056 270.435,103.033 270.853,103.455 271.026 C 111.264 274.220,113.086 276.038,111.264 278.817 C 108.766 282.628,101.867 282.025,96.013 277.485 C 94.424 276.253,94.255 276.343,91.025 280.148 C 88.089 283.607,87.979 284.042,89.667 285.507 C 91.179 286.819,95.435 289.060,96.415 289.060 C 96.733 289.060,97.112 289.178,97.257 289.323 C 98.659 290.726,106.946 291.364,110.723 290.360 C 119.026 288.154,122.972 283.530,122.971 276.008 C 122.970 268.761,120.177 265.665,110.173 261.826 C 105.789 260.143,103.601 259.065,102.399 257.994 C 100.237 256.068,101.692 252.949,105.111 252.180 C 106.754 251.811,110.420 252.301,111.100 252.981 C 111.308 253.189,111.800 253.359,112.195 253.359 C 112.589 253.359,113.477 253.791,114.169 254.319 C 116.011 255.723,116.390 255.572,119.165 252.332 C 122.534 248.399,122.279 247.586,116.859 244.980 C 115.399 244.278,113.866 243.521,113.454 243.297 C 112.680 242.878,103.427 242.522,101.727 242.847 M185.605 242.850 C 184.303 243.044,183.692 243.275,181.061 244.574 C 178.201 245.985,177.771 246.264,176.326 247.652 C 173.891 249.989,172.213 252.948,170.477 257.965 C 169.021 262.174,169.650 272.961,171.663 278.312 C 177.027 292.568,197.732 295.477,207.108 283.293 C 208.055 282.063,208.829 280.962,208.829 280.846 C 208.829 280.730,209.252 279.724,209.770 278.609 C 212.608 272.495,212.792 260.900,210.143 255.028 C 209.843 254.363,209.597 253.712,209.597 253.581 C 209.597 251.908,204.371 246.484,201.263 244.932 C 199.830 244.216,198.311 243.456,197.889 243.244 C 197.100 242.846,187.665 242.544,185.605 242.850 M68.280 243.949 C 78.885 247.796,84.244 259.467,81.556 272.857 C 77.164 294.726,49.795 296.650,42.199 275.624 C 40.894 272.012,40.868 261.001,42.154 257.245 C 45.954 246.156,57.778 240.139,68.280 243.949 M113.705 244.291 C 116.747 245.417,120.070 247.502,120.381 248.479 C 120.634 249.279,120.123 250.114,117.760 252.760 L 116.066 254.657 114.694 253.809 C 109.451 250.568,102.479 250.752,100.866 254.174 C 99.313 257.468,100.861 258.840,110.534 262.743 C 119.730 266.452,122.718 269.956,122.397 276.653 C 121.911 286.783,108.676 293.553,98.081 289.091 C 97.658 288.913,96.579 288.462,95.681 288.087 C 94.784 287.713,94.050 287.261,94.050 287.082 C 94.050 286.903,93.728 286.756,93.335 286.756 C 92.435 286.756,89.635 284.563,89.635 283.858 C 89.635 283.225,93.191 278.592,94.158 277.965 C 94.716 277.603,95.082 277.706,96.163 278.530 C 101.252 282.412,109.799 282.916,111.843 279.455 C 113.997 275.810,112.113 273.838,102.879 270.069 C 97.831 268.008,95.413 266.501,93.517 264.235 C 89.684 259.655,89.902 252.111,93.985 248.010 C 95.158 246.832,97.801 244.914,98.251 244.914 C 98.495 244.914,99.247 244.622,99.923 244.265 C 102.865 242.713,109.475 242.725,113.705 244.291 M130.529 243.743 C 130.260 244.244,130.161 251.940,130.227 267.063 L 130.326 289.635 135.701 289.635 L 141.075 289.635 141.267 283.685 C 141.372 280.413,141.616 277.476,141.809 277.159 C 142.871 275.411,145.681 271.794,146.101 271.632 C 146.412 271.513,147.648 273.295,149.482 276.509 C 151.072 279.295,153.459 283.388,154.786 285.605 L 157.198 289.635 162.734 289.742 C 165.813 289.802,168.429 289.690,168.629 289.490 C 169.008 289.111,167.480 286.098,164.319 280.996 C 163.337 279.411,162.411 277.857,162.261 277.541 C 162.111 277.226,161.646 276.449,161.228 275.816 C 160.811 275.182,160.348 274.405,160.201 274.088 C 159.974 273.602,155.842 266.690,154.693 264.875 C 152.746 261.800,152.162 262.885,164.412 246.822 C 167.078 243.326,166.978 243.208,161.224 243.075 C 154.739 242.925,154.635 242.976,151.248 247.978 C 150.931 248.445,149.765 250.004,148.656 251.442 C 147.548 252.879,146.641 254.165,146.641 254.299 C 146.641 254.433,146.470 254.752,146.260 255.007 C 146.050 255.262,145.268 256.248,144.522 257.198 C 143.775 258.148,142.781 259.357,142.312 259.885 L 141.459 260.845 141.355 252.429 C 141.288 247.011,141.101 243.833,140.828 243.504 C 140.067 242.586,131.036 242.795,130.529 243.743 M197.978 244.095 C 209.400 248.346,214.790 263.586,209.652 277.108 C 208.026 281.387,203.232 287.180,200.814 287.787 C 200.273 287.922,199.308 288.338,198.668 288.709 C 194.926 290.883,186.598 290.634,181.784 288.204 C 165.407 279.938,166.708 249.748,183.685 244.055 C 187.374 242.819,194.601 242.839,197.978 244.095 M234.977 243.517 C 234.662 243.896,234.570 250.319,234.642 266.838 L 234.741 289.635 239.539 289.635 L 244.338 289.635 244.295 275.889 C 244.272 268.328,244.371 262.282,244.516 262.453 C 244.660 262.624,245.103 263.800,245.500 265.067 C 245.898 266.334,246.360 267.535,246.528 267.735 C 246.696 267.936,246.833 268.405,246.833 268.778 C 246.833 269.151,247.081 270.023,247.383 270.716 C 247.686 271.410,248.657 273.964,249.542 276.392 C 253.184 286.387,252.883 285.974,256.547 285.983 L 259.160 285.988 259.931 284.165 C 261.508 280.436,262.083 278.943,264.110 273.321 C 264.985 270.893,265.846 268.560,266.023 268.138 C 266.200 267.716,266.655 266.420,267.033 265.259 C 267.410 264.098,267.929 262.889,268.185 262.572 C 268.440 262.255,268.737 261.478,268.844 260.845 C 269.065 259.532,268.860 262.515,268.343 268.138 C 267.902 272.926,267.848 288.695,268.270 289.360 C 268.503 289.727,269.794 289.824,273.351 289.744 L 278.119 289.635 278.218 266.838 C 278.290 250.319,278.198 243.896,277.883 243.517 C 277.431 242.973,268.314 242.730,267.016 243.228 C 266.336 243.489,265.698 244.769,264.551 248.177 C 264.125 249.443,263.233 251.948,262.569 253.743 C 261.905 255.537,261.271 257.351,261.161 257.774 C 261.050 258.196,260.718 259.086,260.422 259.751 C 260.127 260.416,259.885 261.202,259.885 261.498 C 259.885 261.793,259.741 262.199,259.566 262.399 C 259.390 262.600,258.937 263.887,258.558 265.259 C 256.764 271.753,256.539 271.933,255.297 267.859 C 254.828 266.324,254.268 264.635,254.053 264.107 C 253.837 263.580,253.343 262.198,252.955 261.036 C 252.254 258.936,250.988 255.470,248.712 249.424 C 248.056 247.682,247.432 245.778,247.323 245.192 C 246.974 243.296,246.032 242.994,240.461 242.994 C 236.667 242.994,235.303 243.124,234.977 243.517 M288.895 243.597 C 288.231 244.261,287.958 288.323,288.611 289.352 C 288.852 289.731,292.163 289.815,303.864 289.736 L 318.810 289.635 318.920 285.893 C 319.086 280.227,319.854 280.647,309.107 280.525 L 300.000 280.422 300.000 275.624 L 300.000 270.825 307.486 270.633 L 314.971 270.441 315.080 266.058 C 315.215 260.645,315.867 261.050,307.006 261.042 L 299.808 261.036 299.808 256.814 L 299.808 252.591 308.279 252.591 C 313.383 252.591,317.044 252.433,317.492 252.194 C 318.499 251.655,318.614 244.580,317.631 243.597 C 316.720 242.686,289.806 242.686,288.895 243.597 M327.731 243.452 C 327.097 243.923,327.061 245.368,327.155 266.795 L 327.255 289.635 337.018 289.738 C 343.266 289.804,346.922 289.700,347.172 289.450 C 347.387 289.235,348.003 289.058,348.541 289.057 C 349.080 289.056,350.015 288.797,350.620 288.481 C 351.224 288.166,352.024 287.908,352.396 287.908 C 352.768 287.908,353.288 287.649,353.551 287.332 C 353.814 287.015,354.273 286.756,354.571 286.756 C 355.569 286.756,360.228 281.658,361.350 279.338 C 365.557 270.641,364.723 257.482,359.547 250.870 C 357.276 247.970,352.974 244.966,351.036 244.929 C 350.604 244.920,350.079 244.744,349.872 244.536 C 348.693 243.357,329.146 242.400,327.731 243.452 M139.635 244.004 C 140.498 244.235,140.499 244.248,140.505 252.732 C 140.513 263.948,140.578 264.026,144.945 258.043 C 146.440 255.995,149.277 252.101,151.249 249.390 C 155.390 243.695,155.457 243.656,160.538 243.828 C 166.159 244.018,166.553 242.928,155.789 256.939 C 151.708 262.250,151.729 261.596,155.454 267.744 C 157.804 271.622,162.189 279.019,166.169 285.819 C 167.041 287.309,167.754 288.734,167.754 288.986 C 167.754 289.805,158.417 289.606,157.698 288.772 C 157.143 288.127,154.054 282.917,151.838 278.887 C 150.928 277.234,149.652 275.047,147.525 271.497 C 146.839 270.353,145.688 270.403,144.836 271.614 C 144.456 272.153,143.575 273.303,142.878 274.169 C 140.746 276.819,140.499 277.830,140.499 283.924 L 140.499 289.443 135.701 289.443 L 130.902 289.443 130.902 267.006 C 130.902 246.041,130.946 244.542,131.574 244.177 C 132.301 243.753,138.226 243.626,139.635 244.004 M245.155 243.992 C 246.039 244.229,246.529 245.099,247.620 248.369 C 248.008 249.530,248.876 251.948,249.550 253.743 C 250.224 255.537,251.922 260.373,253.323 264.488 C 256.569 274.015,256.849 274.121,258.924 266.603 C 259.273 265.336,260.654 261.276,261.992 257.582 C 263.331 253.887,264.880 249.565,265.436 247.978 C 266.934 243.701,266.536 243.972,271.544 243.826 C 278.305 243.629,277.543 240.685,277.543 267.013 L 277.543 289.469 273.225 289.360 L 268.906 289.251 268.796 280.998 C 268.726 275.776,268.902 270.323,269.275 266.152 C 270.011 257.941,270.013 257.549,269.333 257.810 C 268.763 258.029,268.598 258.434,265.839 266.411 C 263.291 273.777,259.511 283.724,258.873 284.741 C 258.250 285.735,254.552 286.017,253.836 285.125 C 253.373 284.548,247.982 270.201,245.515 262.984 C 243.544 257.216,243.625 257.381,243.118 258.052 C 242.889 258.354,242.869 259.716,243.065 261.612 C 243.240 263.301,243.487 270.254,243.615 277.063 L 243.847 289.443 239.582 289.443 L 235.317 289.443 235.317 266.823 C 235.317 245.602,235.358 244.191,235.988 244.027 C 236.987 243.766,244.210 243.738,245.155 243.992 M316.482 244.136 C 317.344 244.464,318.125 251.287,317.370 251.902 C 317.318 251.944,313.215 252.074,308.253 252.189 L 299.232 252.399 299.123 256.783 C 298.988 262.189,298.363 261.791,306.992 261.798 C 315.156 261.805,314.783 261.599,314.773 266.098 C 314.765 270.252,315.204 270.027,306.637 270.250 L 299.232 270.441 299.125 275.594 C 298.992 281.935,298.051 281.369,308.743 281.376 L 317.485 281.382 317.860 282.367 C 318.274 283.455,318.354 287.229,317.992 288.580 L 317.761 289.443 303.619 289.443 L 289.478 289.443 289.255 288.196 C 289.132 287.510,289.081 277.369,289.142 265.660 L 289.251 244.372 290.211 244.105 C 291.724 243.685,315.367 243.712,316.482 244.136 M348.752 244.751 C 360.366 248.727,365.587 259.485,362.619 273.321 C 361.276 279.582,355.819 286.756,352.399 286.756 C 352.171 286.756,351.514 287.104,350.938 287.529 C 349.181 288.829,345.860 289.226,336.660 289.239 L 328.023 289.251 327.924 266.879 L 327.825 244.507 328.692 244.129 C 330.205 243.468,346.480 243.973,348.752 244.751 M57.332 252.386 C 48.594 256.472,48.812 276.524,57.642 281.029 C 65.310 284.941,72.027 277.893,71.938 266.027 C 71.854 254.605,65.425 248.602,57.332 252.386 M187.385 251.965 C 178.262 255.266,177.688 276.308,186.597 280.823 C 194.761 284.960,202.130 277.157,201.432 265.113 C 200.841 254.920,194.813 249.277,187.385 251.965 M65.125 252.854 C 71.769 255.908,73.884 272.296,68.321 277.618 C 67.947 277.975,67.580 278.411,67.506 278.586 C 66.116 281.858,59.253 282.096,55.938 278.988 C 51.621 274.940,50.355 262.365,53.706 256.814 C 54.589 255.352,56.703 253.359,57.371 253.359 C 57.698 253.359,57.965 253.196,57.965 252.998 C 57.965 251.895,62.826 251.798,65.125 252.854 M194.434 252.842 C 204.680 257.679,201.772 281.382,190.932 281.382 C 183.996 281.382,179.398 272.070,181.331 261.935 C 182.832 254.064,188.577 250.077,194.434 252.842 M337.908 252.244 C 337.109 253.078,337.225 280.356,338.031 281.163 C 339.724 282.855,347.792 280.494,350.400 277.543 C 354.444 272.968,354.133 259.519,349.882 255.142 C 347.373 252.558,339.445 250.639,337.908 252.244 M345.298 252.975 C 345.428 253.186,345.833 253.359,346.197 253.359 C 347.024 253.359,350.542 256.932,351.487 258.733 C 352.551 260.760,352.743 270.144,351.783 273.224 C 351.083 275.470,347.687 279.463,346.476 279.463 C 346.193 279.463,345.478 279.713,344.888 280.019 C 343.355 280.815,339.999 281.169,339.010 280.639 C 338.201 280.206,337.670 255.175,338.429 253.198 C 338.699 252.493,344.875 252.292,345.298 252.975 " stroke="none" fill="#9599a1" fill-rule="evenodd"></path><path id="path4" d="M174.472 95.585 C 174.050 95.767,173.211 95.927,172.608 95.942 C 172.005 95.957,170.363 96.219,168.961 96.525 C 166.309 97.103,161.657 98.040,158.349 98.664 C 153.370 99.602,149.962 100.266,146.257 101.021 C 144.040 101.472,141.319 101.955,140.210 102.093 C 137.622 102.415,137.541 102.524,137.307 105.950 C 137.199 107.534,136.834 112.111,136.496 116.123 C 136.157 120.134,135.717 125.749,135.518 128.599 C 135.318 131.449,134.876 137.236,134.536 141.459 C 134.195 145.681,133.823 150.609,133.710 152.409 L 133.504 155.682 140.140 161.622 C 149.436 169.943,149.573 170.058,150.236 170.058 C 150.618 170.058,150.903 169.580,151.038 168.714 C 151.153 167.975,151.348 166.733,151.470 165.955 C 151.593 165.176,151.848 162.628,152.036 160.293 C 152.225 157.957,152.554 153.887,152.767 151.248 C 152.980 148.608,153.326 144.808,153.537 142.802 C 153.747 140.797,154.190 136.046,154.521 132.246 C 155.341 122.830,155.727 119.743,156.137 119.333 C 156.505 118.966,159.033 118.315,164.107 117.283 C 165.797 116.940,168.405 116.380,169.905 116.040 C 173.680 115.184,174.048 115.385,173.764 118.144 C 173.639 119.355,173.366 122.418,173.157 124.952 C 172.685 130.665,172.088 137.406,171.542 143.186 C 171.313 145.614,170.978 149.674,170.799 152.207 C 169.894 164.964,169.697 167.429,169.342 170.441 C 169.130 172.236,168.902 175.422,168.836 177.521 L 168.714 181.337 172.214 184.431 C 174.140 186.132,176.709 188.388,177.925 189.443 C 179.141 190.499,181.453 192.529,183.062 193.954 C 187.686 198.049,187.690 198.044,188.460 186.372 C 188.682 182.994,189.129 176.862,189.451 172.745 C 189.774 168.628,190.201 162.754,190.399 159.693 C 190.598 156.631,190.854 153.522,190.970 152.783 C 191.085 152.044,191.350 148.848,191.559 145.681 C 191.767 142.514,192.201 136.555,192.523 132.438 C 192.846 128.321,193.273 122.449,193.474 119.389 C 193.675 116.329,193.946 113.112,194.077 112.240 C 194.314 110.655,194.314 110.654,191.495 108.252 C 189.944 106.931,187.213 104.534,185.425 102.925 C 179.298 97.413,178.693 96.881,177.587 96.042 C 176.414 95.152,175.719 95.050,174.472 95.585 M177.448 97.045 C 178.894 98.195,184.139 102.832,185.771 104.404 C 186.313 104.926,187.965 106.389,189.443 107.657 C 190.921 108.924,192.346 110.168,192.610 110.423 C 193.191 110.983,193.242 115.152,192.708 118.442 C 192.501 119.717,192.161 123.431,191.952 126.695 C 191.156 139.132,190.769 144.245,190.400 147.182 C 190.191 148.852,190.019 151.714,190.019 153.541 C 190.019 155.369,189.848 157.803,189.639 158.951 C 189.267 160.985,188.772 167.607,188.089 179.655 C 187.904 182.927,187.577 186.814,187.363 188.292 C 187.149 189.770,186.968 191.886,186.961 192.994 C 186.949 194.866,185.901 195.985,185.349 194.715 C 185.278 194.554,183.752 193.154,181.958 191.605 C 180.163 190.056,178.090 188.252,177.351 187.595 C 176.612 186.939,174.885 185.462,173.512 184.313 C 168.967 180.507,169.005 180.589,169.701 176.200 C 169.919 174.827,170.253 171.200,170.443 168.138 C 170.633 165.077,171.061 159.635,171.393 156.046 C 171.725 152.457,172.150 147.102,172.336 144.146 C 172.522 141.190,172.786 138.494,172.922 138.154 C 173.058 137.814,173.325 135.050,173.514 132.012 C 173.704 128.973,174.056 124.019,174.296 121.002 C 174.725 115.604,174.520 113.965,173.493 114.599 C 173.320 114.707,171.828 115.056,170.178 115.376 C 164.685 116.442,163.743 116.628,160.845 117.220 C 157.443 117.914,155.067 118.500,154.920 118.680 C 154.772 118.861,153.887 127.970,153.546 132.821 C 153.030 140.160,152.384 147.184,152.005 149.564 C 151.800 150.856,151.628 153.101,151.625 154.555 C 151.621 156.008,151.363 158.752,151.050 160.653 C 150.738 162.553,150.482 165.101,150.481 166.315 C 150.479 169.545,150.382 169.509,144.543 164.130 C 142.545 162.289,140.256 160.263,139.457 159.629 C 136.052 156.925,134.346 154.858,134.559 153.692 C 134.745 152.679,134.990 149.178,135.898 134.549 C 136.082 131.593,136.409 127.965,136.626 126.488 C 136.842 125.010,137.025 122.256,137.032 120.369 C 137.038 118.481,137.218 115.976,137.429 114.802 C 137.641 113.628,137.916 110.670,138.039 108.229 C 138.296 103.123,138.350 103.045,141.992 102.459 C 143.177 102.269,145.528 101.846,147.217 101.519 C 148.906 101.193,151.152 100.780,152.207 100.602 C 154.483 100.220,158.198 99.478,160.077 99.031 C 161.451 98.705,164.384 98.142,168.138 97.484 C 169.299 97.280,171.459 96.872,172.937 96.578 C 174.415 96.284,175.730 96.026,175.859 96.006 C 175.988 95.986,176.703 96.453,177.448 97.045 " stroke="none" fill="#fc8464" fill-rule="evenodd"></path></g></svg>